<svg width="67" height="64" viewBox="0 0 67 64" fill="none" xmlns="http://www.w3.org/2000/svg">
<rect width="67" height="64" rx="6" fill="black"/>
<path d="M40.8654 45.5435L55.156 50.2105L56.9822 44.7029L35.8859 37.3822L32.876 40.7316L38.519 58.2769L45.2848 58.5378L40.8654 45.5435Z" fill="white" fill-opacity="0.8"/>
<path d="M48.1871 30.2451L57.0737 18.1942L52.3623 14.7684L38.8308 32.4245L41.1082 36.3009L59.6589 36.3958L62 30.087L48.1871 30.2451Z" fill="white" fill-opacity="0.8"/>
<path d="M35.5137 18.2449L26.7148 6.12811L21.9769 9.51965L34.7095 27.7528L39.1262 26.7989L44.9497 9.31147L39.6305 5.15308L35.5137 18.2449Z" fill="white" fill-opacity="0.8"/>
<path d="M20.8157 26.7131L6.49058 31.2773L8.27426 36.7981L29.6757 30.4103L30.127 25.9463L15.1754 15.0443L9.54831 18.7837L20.8184 26.7184L20.8157 26.7131Z" fill="white" fill-opacity="0.8"/>
<path d="M23.9511 43.3622L23.8954 58.2987L29.7348 58.3198L30.2285 36.1391L26.0905 34.3313L11.0274 45.0804L12.8695 51.5499L23.9511 43.3622Z" fill="white" fill-opacity="0.8"/>
</svg>
